<svg xmlns="http://www.w3.org/2000/svg" xmlns:xlink="http://www.w3.org/1999/xlink" viewBox="0 0 329.04 105.04"><defs><style>.cls-1{fill:url(#linear-gradient);}.cls-2{fill:url(#linear-gradient-2);}.cls-3{fill:url(#linear-gradient-3);}.cls-4{fill:url(#linear-gradient-4);}.cls-5{fill:url(#linear-gradient-5);}</style><linearGradient id="linear-gradient" x1="101.54" y1="24.62" x2="190.81" y2="-5.88" gradientUnits="userSpaceOnUse"><stop offset="0" stop-color="#f15a24"/><stop offset="1" stop-color="#fbb03b"/></linearGradient><linearGradient id="linear-gradient-2" x1="108.92" y1="46.22" x2="198.19" y2="15.71" xlink:href="#linear-gradient"/><linearGradient id="linear-gradient-3" x1="115.55" y1="65.62" x2="204.82" y2="35.12" xlink:href="#linear-gradient"/><linearGradient id="linear-gradient-4" x1="122.96" y1="87.29" x2="212.22" y2="56.78" xlink:href="#linear-gradient"/><linearGradient id="linear-gradient-5" x1="131.2" y1="111.41" x2="220.47" y2="80.9" xlink:href="#linear-gradient"/></defs><title>studioAsset 2</title><g id="Layer_2" data-name="Layer 2"><g id="Layer_1-2" data-name="Layer 1"><path class="cls-1" d="M39.84,25.16V105H16.58V25.16H0V0H56.43V25.16Z"/><path class="cls-2" d="M120.57,80V105H60.4V0h60.17V24.24H84.48V39.48h29.18V62.79H84.48V80Z"/><path class="cls-3" d="M189.49,105H162.28L150.59,64.87h-7.74V105H118.3V0h41.78q13.83,0,21.47,8.5t7.65,22.43a42.7,42.7,0,0,1-2.81,16q-2.82,7-11.37,12.27ZM142.85,42.4h10.49a10.68,10.68,0,0,0,7.44-2.54c1.88-1.69,2.81-4.18,2.81-7.46q0-10.08-9.43-10.08H142.85Z"/><path class="cls-4" d="M260.29,105H233.07L221.39,64.87h-7.75V105H189.09V0h41.78q13.83,0,21.48,8.5T260,30.93a42.7,42.7,0,0,1-2.81,16q-2.82,7-11.37,12.27ZM213.64,42.4h10.49a10.68,10.68,0,0,0,7.44-2.54q2.82-2.53,2.82-7.46,0-10.08-9.44-10.08H213.64Z"/><path class="cls-5" d="M304,105l-4.52-20.7H278l-4.8,20.7H253.31L278,0h26L329,105ZM282.22,61.41h12.94l-6.47-30.47Z"/></g></g></svg>